<mxfile host="app.diagrams.net" modified="2023-05-30T07:03:58.389Z" agent="Mozilla/5.0 (Windows NT 10.0; Win64; x64) AppleWebKit/537.36 (KHTML, like Gecko) Chrome/113.0.0.0 Safari/537.36" etag="ujSiCcCNtlcao7TPVRan" version="21.3.5" type="device">
  <diagram name="페이지-1" id="TuyBTy-3PDzEOKKOlznF">
    <mxGraphModel dx="3193" dy="689" grid="1" gridSize="10" guides="1" tooltips="1" connect="1" arrows="1" fold="1" page="1" pageScale="1" pageWidth="827" pageHeight="1169" math="0" shadow="0">
      <root>
        <mxCell id="0" />
        <mxCell id="1" parent="0" />
        <mxCell id="yyDFMaXdAM7MR15mIWiq-1" value="이미지 입력" style="rounded=0;whiteSpace=wrap;html=1;" parent="1" vertex="1">
          <mxGeometry x="-2000" y="250" width="120" height="60" as="geometry" />
        </mxCell>
        <mxCell id="VtcBXivOY4kHjfIVGj7e-1" value="객체 탐지" style="rounded=0;whiteSpace=wrap;html=1;" vertex="1" parent="1">
          <mxGeometry x="-1800" y="250" width="120" height="60" as="geometry" />
        </mxCell>
        <mxCell id="VtcBXivOY4kHjfIVGj7e-2" value="마스킹" style="rounded=0;whiteSpace=wrap;html=1;" vertex="1" parent="1">
          <mxGeometry x="-1600" y="250" width="120" height="60" as="geometry" />
        </mxCell>
        <mxCell id="VtcBXivOY4kHjfIVGj7e-3" value="2차원 그리드 변환" style="rounded=0;whiteSpace=wrap;html=1;" vertex="1" parent="1">
          <mxGeometry x="-1400" y="250" width="120" height="60" as="geometry" />
        </mxCell>
        <mxCell id="VtcBXivOY4kHjfIVGj7e-4" value="레고 블록 색상 매칭" style="rounded=0;whiteSpace=wrap;html=1;" vertex="1" parent="1">
          <mxGeometry x="-1200" y="250" width="120" height="60" as="geometry" />
        </mxCell>
        <mxCell id="VtcBXivOY4kHjfIVGj7e-5" value="조립 과정 생성" style="rounded=0;whiteSpace=wrap;html=1;" vertex="1" parent="1">
          <mxGeometry x="-1000" y="250" width="120" height="60" as="geometry" />
        </mxCell>
        <mxCell id="VtcBXivOY4kHjfIVGj7e-6" value="조립 설명서 출력" style="rounded=0;whiteSpace=wrap;html=1;" vertex="1" parent="1">
          <mxGeometry x="-800" y="250" width="120" height="60" as="geometry" />
        </mxCell>
        <mxCell id="VtcBXivOY4kHjfIVGj7e-7" value="" style="endArrow=classic;html=1;rounded=0;exitX=1;exitY=0.5;exitDx=0;exitDy=0;entryX=0;entryY=0.5;entryDx=0;entryDy=0;" edge="1" parent="1" source="yyDFMaXdAM7MR15mIWiq-1" target="VtcBXivOY4kHjfIVGj7e-1">
          <mxGeometry width="50" height="50" relative="1" as="geometry">
            <mxPoint x="-1860" y="380" as="sourcePoint" />
            <mxPoint x="-1810" y="330" as="targetPoint" />
          </mxGeometry>
        </mxCell>
        <mxCell id="VtcBXivOY4kHjfIVGj7e-8" value="" style="endArrow=classic;html=1;rounded=0;exitX=1;exitY=0.5;exitDx=0;exitDy=0;entryX=0;entryY=0.5;entryDx=0;entryDy=0;" edge="1" parent="1" source="VtcBXivOY4kHjfIVGj7e-1" target="VtcBXivOY4kHjfIVGj7e-2">
          <mxGeometry width="50" height="50" relative="1" as="geometry">
            <mxPoint x="-1860" y="380" as="sourcePoint" />
            <mxPoint x="-1810" y="330" as="targetPoint" />
          </mxGeometry>
        </mxCell>
        <mxCell id="VtcBXivOY4kHjfIVGj7e-9" value="" style="endArrow=classic;html=1;rounded=0;exitX=1;exitY=0.5;exitDx=0;exitDy=0;entryX=0;entryY=0.5;entryDx=0;entryDy=0;" edge="1" parent="1" source="VtcBXivOY4kHjfIVGj7e-2" target="VtcBXivOY4kHjfIVGj7e-3">
          <mxGeometry width="50" height="50" relative="1" as="geometry">
            <mxPoint x="-1580" y="380" as="sourcePoint" />
            <mxPoint x="-1530" y="330" as="targetPoint" />
          </mxGeometry>
        </mxCell>
        <mxCell id="VtcBXivOY4kHjfIVGj7e-10" value="" style="endArrow=classic;html=1;rounded=0;exitX=1;exitY=0.5;exitDx=0;exitDy=0;entryX=0;entryY=0.5;entryDx=0;entryDy=0;" edge="1" parent="1" source="VtcBXivOY4kHjfIVGj7e-3" target="VtcBXivOY4kHjfIVGj7e-4">
          <mxGeometry width="50" height="50" relative="1" as="geometry">
            <mxPoint x="-1580" y="380" as="sourcePoint" />
            <mxPoint x="-1530" y="330" as="targetPoint" />
          </mxGeometry>
        </mxCell>
        <mxCell id="VtcBXivOY4kHjfIVGj7e-11" value="" style="endArrow=classic;html=1;rounded=0;exitX=1;exitY=0.5;exitDx=0;exitDy=0;entryX=0;entryY=0.5;entryDx=0;entryDy=0;" edge="1" parent="1" source="VtcBXivOY4kHjfIVGj7e-4" target="VtcBXivOY4kHjfIVGj7e-5">
          <mxGeometry width="50" height="50" relative="1" as="geometry">
            <mxPoint x="-1180" y="380" as="sourcePoint" />
            <mxPoint x="-1130" y="330" as="targetPoint" />
          </mxGeometry>
        </mxCell>
        <mxCell id="VtcBXivOY4kHjfIVGj7e-12" value="" style="endArrow=classic;html=1;rounded=0;exitX=1;exitY=0.5;exitDx=0;exitDy=0;entryX=0;entryY=0.5;entryDx=0;entryDy=0;" edge="1" parent="1" source="VtcBXivOY4kHjfIVGj7e-5" target="VtcBXivOY4kHjfIVGj7e-6">
          <mxGeometry width="50" height="50" relative="1" as="geometry">
            <mxPoint x="-1180" y="380" as="sourcePoint" />
            <mxPoint x="-1130" y="330" as="targetPoint" />
          </mxGeometry>
        </mxCell>
      </root>
    </mxGraphModel>
  </diagram>
</mxfile>
